<svg width="137" height="45" viewBox="0 0 137 45" fill="none" xmlns="http://www.w3.org/2000/svg">
<g filter="url(#filter0_d)">
<path d="M15.0202 10V29.16C15.6868 28.9467 16.2735 28.7067 16.7802 28.44C17.3135 28.1733 17.7668 27.8133 18.1402 27.36C18.5402 26.9067 18.8602 26.32 19.1002 25.6C19.3668 24.88 19.5668 23.96 19.7002 22.84H21.1802C20.9668 24.2533 20.6868 25.4133 20.3402 26.32C20.0202 27.2 19.6068 27.92 19.1002 28.48C18.6202 29.0133 18.0335 29.44 17.3402 29.76C16.6735 30.0533 15.9002 30.3333 15.0202 30.6V33.16C15.0202 34.4133 14.8868 35.4667 14.6202 36.32C14.3535 37.2 13.9802 37.9067 13.5002 38.44C13.0468 39 12.5135 39.4 11.9002 39.64C11.3135 39.88 10.6868 40 10.0202 40C8.68682 40 7.64682 39.6133 6.90016 38.84C6.15349 38.0933 5.78016 37.1733 5.78016 36.08C5.78016 35.3867 5.92682 34.76 6.22016 34.2C6.54016 33.64 6.94016 33.12 7.42016 32.64C7.92682 32.1867 8.48682 31.7733 9.10016 31.4C9.74016 31.0533 10.3802 30.7467 11.0202 30.48V27.96C10.4868 28.7333 9.87349 29.3067 9.18016 29.68C8.51349 30.0533 7.83349 30.24 7.14016 30.24C6.36682 30.24 5.63349 30.1333 4.94016 29.92C4.24682 29.7067 3.64682 29.36 3.14016 28.88C2.63349 28.3733 2.23349 27.7333 1.94016 26.96C1.64682 26.16 1.50016 25.1867 1.50016 24.04V10H5.50016V23.6C5.50016 24.9067 5.72682 25.84 6.18016 26.4C6.63349 26.9333 7.20682 27.2 7.90016 27.2C8.27349 27.2 8.64682 27.1067 9.02016 26.92C9.39349 26.7333 9.72682 26.4667 10.0202 26.12C10.3135 25.7467 10.5535 25.3067 10.7402 24.8C10.9268 24.2933 11.0202 23.7067 11.0202 23.04V10H15.0202ZM9.26016 37.92C9.98016 37.92 10.4468 37.64 10.6602 37.08C10.9002 36.5467 11.0202 35.8133 11.0202 34.88V32.08C9.68682 32.6933 8.74016 33.2933 8.18016 33.88C7.62016 34.4933 7.34016 35.1733 7.34016 35.92C7.34016 36.5333 7.50016 37.0133 7.82016 37.36C8.16682 37.7333 8.64682 37.92 9.26016 37.92ZM26.9842 9.8C28.0242 9.8 28.9176 9.96 29.6642 10.28C30.4109 10.6 31.0242 11.0533 31.5042 11.64C31.9842 12.2 32.3576 12.8667 32.6242 13.64C32.9176 14.4133 33.1309 15.24 33.2642 16.12H33.5042C34.6242 16.12 35.6509 15.8933 36.5842 15.44C37.5176 14.9867 38.3176 14.4133 38.9842 13.72L39.5842 14.8C39.0509 15.6533 38.1976 16.36 37.0242 16.92C35.8776 17.48 34.6909 17.8667 33.4642 18.08C33.4642 18.3467 33.4642 18.6133 33.4642 18.88C33.4909 19.1467 33.5042 19.4267 33.5042 19.72C33.5042 23 32.9042 25.5733 31.7042 27.44C30.5042 29.3067 28.8242 30.24 26.6642 30.24C25.7842 30.24 24.8909 30.08 23.9842 29.76C23.1042 29.44 22.3042 28.9067 21.5842 28.16C20.8642 27.4133 20.2776 26.4533 19.8242 25.28C19.3976 24.1067 19.1842 22.6533 19.1842 20.92C19.1842 19.7467 19.3042 18.5067 19.5442 17.2C19.8109 15.8933 20.2376 14.6933 20.8242 13.6C21.4376 12.5067 22.2376 11.6 23.2242 10.88C24.2376 10.16 25.4909 9.8 26.9842 9.8ZM27.3842 27.2C28.7976 27.2 29.8376 26.5067 30.5042 25.12C31.1709 23.7067 31.5042 21.72 31.5042 19.16C31.5042 19 31.5042 18.84 31.5042 18.68C31.5042 18.52 31.4909 18.36 31.4642 18.2C30.6909 18.1467 30.1309 17.9733 29.7842 17.68C29.4642 17.3867 29.3042 16.8933 29.3042 16.2C29.3042 15.5867 29.4376 15.16 29.7042 14.92C29.9709 14.6533 30.3709 14.5067 30.9042 14.48C30.5842 13.5467 30.1709 12.9067 29.6642 12.56C29.1842 12.1867 28.6376 12 28.0242 12C27.1976 12 26.4909 12.28 25.9042 12.84C25.3442 13.3733 24.8776 14.0667 24.5042 14.92C24.1576 15.7733 23.9042 16.72 23.7442 17.76C23.5842 18.7733 23.5042 19.7733 23.5042 20.76C23.5042 22.0667 23.6242 23.1333 23.8642 23.96C24.1042 24.7867 24.4109 25.44 24.7842 25.92C25.1576 26.4 25.5709 26.7333 26.0242 26.92C26.4776 27.1067 26.9309 27.2 27.3842 27.2ZM49.942 10V23.6C49.942 23.8667 49.9554 24.2 49.982 24.6C50.0087 25 50.0754 25.4 50.182 25.8C50.3154 26.1733 50.502 26.5067 50.742 26.8C50.982 27.0667 51.3154 27.2 51.742 27.2C53.0487 27.2 54.0087 25.7467 54.622 22.84H56.102C55.8087 24.52 55.4354 25.8533 54.982 26.84C54.5287 27.8 54.0487 28.5333 53.542 29.04C53.0354 29.5467 52.5154 29.8667 51.982 30C51.4487 30.16 50.9687 30.24 50.542 30.24C49.9287 30.24 49.3954 30.1333 48.942 29.92C48.5154 29.7067 48.142 29.4267 47.822 29.08C47.5287 28.7333 47.2887 28.3333 47.102 27.88C46.9154 27.4267 46.7687 26.96 46.662 26.48C46.1554 27.7867 45.4887 28.7467 44.662 29.36C43.8354 29.9467 42.9687 30.24 42.062 30.24C41.2887 30.24 40.5554 30.1333 39.862 29.92C39.1687 29.7067 38.5687 29.36 38.062 28.88C37.5554 28.3733 37.1554 27.7333 36.862 26.96C36.5687 26.16 36.422 25.1867 36.422 24.04V10H40.422V23.6C40.422 24.9067 40.6487 25.84 41.102 26.4C41.5554 26.9333 42.1287 27.2 42.822 27.2C43.1954 27.2 43.5687 27.1067 43.942 26.92C44.3154 26.7067 44.6487 26.4133 44.942 26.04C45.2354 25.6667 45.4754 25.2133 45.662 24.68C45.8487 24.1467 45.942 23.5333 45.942 22.84V10H49.942ZM58.5861 10V13.36C58.9061 12.88 59.2128 12.4267 59.5061 12C59.8261 11.5733 60.1728 11.2 60.5461 10.88C60.9194 10.56 61.3328 10.3067 61.7861 10.12C62.2394 9.90667 62.7461 9.8 63.3061 9.8C64.2128 9.8 64.8794 10.04 65.3061 10.52C65.7328 10.9733 65.9461 11.5333 65.9461 12.2C65.9461 12.6 65.8794 12.9333 65.7461 13.2C65.6128 13.4667 65.4528 13.68 65.2661 13.84C65.0794 14 64.8794 14.12 64.6661 14.2C64.4528 14.2533 64.2661 14.28 64.1061 14.28C63.8661 14.28 63.6661 14.2267 63.5061 14.12C63.3728 14.0133 63.2261 13.9067 63.0661 13.8C62.9328 13.6667 62.7728 13.5467 62.5861 13.44C62.3994 13.3333 62.1594 13.28 61.8661 13.28C61.2528 13.28 60.6661 13.4933 60.1061 13.92C59.5461 14.3467 59.0394 14.8 58.5861 15.28V30H54.5861V10H58.5861ZM92.7036 0.079999V30H87.3436L77.3036 7.48V30H74.6236V2.44C73.1569 2.94667 72.0103 3.76 71.1836 4.88C70.3569 5.97333 69.9436 7.41333 69.9436 9.2C69.9436 10.0267 70.0103 10.7333 70.1436 11.32C70.2769 11.88 70.4369 12.36 70.6236 12.76C70.8103 13.1333 71.0103 13.44 71.2236 13.68C71.4636 13.92 71.6769 14.12 71.8636 14.28C70.1836 14.28 68.9436 13.88 68.1436 13.08C67.3703 12.2533 66.9836 10.9333 66.9836 9.12C66.9836 8.02667 67.1969 6.94667 67.6236 5.88C68.0769 4.78666 68.7036 3.81333 69.5036 2.96C70.3036 2.08 71.2636 1.37333 72.3836 0.839999C73.5036 0.279998 74.7436 -2.38419e-06 76.1036 -2.38419e-06C76.5569 -2.38419e-06 77.0236 0.0399979 77.5036 0.119998C77.9836 0.199999 78.4503 0.346665 78.9036 0.559998L90.0236 26.24V0.079999H92.7036ZM103.703 9.8C104.743 9.8 105.636 9.96 106.383 10.28C107.13 10.6 107.743 11.0533 108.223 11.64C108.703 12.2 109.076 12.8667 109.343 13.64C109.636 14.4133 109.85 15.24 109.983 16.12H110.223C111.343 16.12 112.37 15.8933 113.303 15.44C114.236 14.9867 115.036 14.4133 115.703 13.72L116.303 14.8C115.77 15.6533 114.916 16.36 113.743 16.92C112.596 17.48 111.41 17.8667 110.183 18.08C110.183 18.3467 110.183 18.6133 110.183 18.88C110.21 19.1467 110.223 19.4267 110.223 19.72C110.223 23 109.623 25.5733 108.423 27.44C107.223 29.3067 105.543 30.24 103.383 30.24C102.503 30.24 101.61 30.08 100.703 29.76C99.823 29.44 99.023 28.9067 98.303 28.16C97.583 27.4133 96.9963 26.4533 96.543 25.28C96.1163 24.1067 95.903 22.6533 95.903 20.92C95.903 19.7467 96.023 18.5067 96.263 17.2C96.5296 15.8933 96.9563 14.6933 97.543 13.6C98.1563 12.5067 98.9563 11.6 99.943 10.88C100.956 10.16 102.21 9.8 103.703 9.8ZM104.103 27.2C105.516 27.2 106.556 26.5067 107.223 25.12C107.89 23.7067 108.223 21.72 108.223 19.16C108.223 19 108.223 18.84 108.223 18.68C108.223 18.52 108.21 18.36 108.183 18.2C107.41 18.1467 106.85 17.9733 106.503 17.68C106.183 17.3867 106.023 16.8933 106.023 16.2C106.023 15.5867 106.156 15.16 106.423 14.92C106.69 14.6533 107.09 14.5067 107.623 14.48C107.303 13.5467 106.89 12.9067 106.383 12.56C105.903 12.1867 105.356 12 104.743 12C103.916 12 103.21 12.28 102.623 12.84C102.063 13.3733 101.596 14.0667 101.223 14.92C100.876 15.7733 100.623 16.72 100.463 17.76C100.303 18.7733 100.223 19.7733 100.223 20.76C100.223 22.0667 100.343 23.1333 100.583 23.96C100.823 24.7867 101.13 25.44 101.503 25.92C101.876 26.4 102.29 26.7333 102.743 26.92C103.196 27.1067 103.65 27.2 104.103 27.2ZM117.181 3.92V10H120.261V11.4H117.181V23.6C117.181 23.92 117.194 24.2933 117.221 24.72C117.247 25.12 117.314 25.5067 117.421 25.88C117.554 26.2533 117.741 26.5733 117.981 26.84C118.247 27.08 118.607 27.2 119.061 27.2C119.781 27.2 120.461 26.84 121.101 26.12C121.767 25.4 122.287 24.3067 122.661 22.84H124.141C123.687 24.52 123.194 25.8533 122.661 26.84C122.154 27.8 121.621 28.5333 121.061 29.04C120.501 29.5467 119.941 29.8667 119.381 30C118.847 30.16 118.354 30.24 117.901 30.24C116.941 30.24 116.154 30.0667 115.541 29.72C114.927 29.3467 114.447 28.88 114.101 28.32C113.754 27.76 113.514 27.1467 113.381 26.48C113.247 25.7867 113.181 25.1067 113.181 24.44V11.4H111.821V10H113.181V4.48L117.181 3.92ZM135.114 15C135.114 16.8667 134.341 18.4267 132.794 19.68C131.274 20.9333 129.154 21.7067 126.434 22C126.541 23.0667 126.727 23.9333 126.994 24.6C127.287 25.2667 127.634 25.8 128.034 26.2C128.434 26.5733 128.887 26.84 129.394 27C129.927 27.1333 130.474 27.2 131.034 27.2C131.887 27.2 132.687 27.0533 133.434 26.76C134.207 26.4667 134.847 25.96 135.354 25.24C135.381 25.4267 135.394 25.6133 135.394 25.8C135.421 25.96 135.434 26.1067 135.434 26.24C135.434 26.8533 135.274 27.4 134.954 27.88C134.661 28.36 134.247 28.7867 133.714 29.16C133.207 29.5067 132.607 29.7733 131.914 29.96C131.247 30.1467 130.541 30.24 129.794 30.24C128.887 30.24 127.981 30.08 127.074 29.76C126.167 29.4133 125.341 28.88 124.594 28.16C123.874 27.4133 123.287 26.4533 122.834 25.28C122.381 24.1067 122.154 22.68 122.154 21C122.154 19.88 122.274 18.6667 122.514 17.36C122.781 16.0533 123.207 14.84 123.794 13.72C124.407 12.6 125.194 11.6667 126.154 10.92C127.141 10.1733 128.354 9.8 129.794 9.8C130.461 9.8 131.101 9.88 131.714 10.04C132.354 10.1733 132.927 10.44 133.434 10.84C133.941 11.2133 134.341 11.7333 134.634 12.4C134.954 13.0667 135.114 13.9333 135.114 15ZM126.394 20.44C128.287 20.1467 129.781 19.48 130.874 18.44C131.994 17.4 132.554 16.12 132.554 14.6C132.554 13.5867 132.381 12.8667 132.034 12.44C131.687 11.9867 131.194 11.76 130.554 11.76C129.861 11.76 129.247 12.0267 128.714 12.56C128.207 13.0933 127.781 13.7867 127.434 14.64C127.087 15.4667 126.821 16.4 126.634 17.44C126.474 18.4533 126.394 19.4533 126.394 20.44Z" fill="#272727"/>
</g>
<defs>
<filter id="filter0_d" x="0.500153" y="-1.90735e-06" width="135.934" height="45" filterUnits="userSpaceOnUse" color-interpolation-filters="sRGB">
<feFlood flood-opacity="0" result="BackgroundImageFix"/>
<feColorMatrix in="SourceAlpha" type="matrix" values="0 0 0 0 0 0 0 0 0 0 0 0 0 0 0 0 0 0 127 0" result="hardAlpha"/>
<feOffset dy="4"/>
<feGaussianBlur stdDeviation="0.5"/>
<feComposite in2="hardAlpha" operator="out"/>
<feColorMatrix type="matrix" values="0 0 0 0 0 0 0 0 0 0 0 0 0 0 0 0 0 0 0.25 0"/>
<feBlend mode="normal" in2="BackgroundImageFix" result="effect1_dropShadow"/>
<feBlend mode="normal" in="SourceGraphic" in2="effect1_dropShadow" result="shape"/>
</filter>
</defs>
</svg>
